# xmcd
#
# Track frame offsets:
#	150
#	13161
#	25593
#	37167
#	48920
#	63406
#	75189
#	86826
#	100414
#	117213
#	128472
#	142798
#	156949
#	174216
#	185768
#	202398
#	220130
#	228111
#	239566
#	254236
#	265013
#	275867
#
# Disc length: 3887 seconds
#
# Revision: 0
# Processed by: cddbd v1.5.2PL0 Copyright (c) Steve Scherf et al.
# Submitted via: EasyCDDAExtractor 16.0.6.1
#
DISCID=390f2d16
DTITLE=Various Artist - Country Sunrise [Disc 01]
DYEAR=2006
DGENRE=Country
TTITLE0=Merle Haggard - The Fightin' Side Of Me
TTITLE1=Johnny Cash - I Walk The Line
TTITLE2=Patsy Cline - Walking After Midnight
TTITLE3=Don Gibson - Oh Lonesome Me
TTITLE4=Eddie Rabbitt - I Love A Rainy Night
TTITLE5=Hank Williams - Take These Chains From My Heart
TTITLE6=Glen Campbell - Heartache Number 3
TTITLE7=Mel McDaniel - Baby's Got Her Blue Jeans On
TTITLE8=Jainie Frickie - It Ain't Easy Being Easy
TTITLE9=Conway Twitty - Hello Darlin'
TTITLE10=Lynn Anderson - Rose Garden
TTITLE11=Lee Greenwood - Dixie Road
TTITLE12=T. Graham Brown - Wine Into Water
TTITLE13=Rusty and Doug Kershaw - Louisiana Man
TTITLE14=Joe South - Walk A Mile In My Shoes
TTITLE15=Michael Johnson - The Moon Is Still Over Her Shoulder
TTITLE16=Roger Miller - Dang Me
TTITLE17=Sandy Posey - Single Girl
TTITLE18=Jeannie C. Riley - Harper Valley Pta
TTITLE19=Charlie Rich - Who Will The Next Fool Be
TTITLE20=Eddy Raven - I Got Mexico
TTITLE21=Billie Jo Spears - Blanket On The Ground
EXTD=
EXTT0=
EXTT1=
EXTT2=
EXTT3=
EXTT4=
EXTT5=
EXTT6=
EXTT7=
EXTT8=
EXTT9=
EXTT10=
EXTT11=
EXTT12=
EXTT13=
EXTT14=
EXTT15=
EXTT16=
EXTT17=
EXTT18=
EXTT19=
EXTT20=
EXTT21=
PLAYORDER=
